<svg width="300" height="300" viewBox="0 0 300 300" fill="none" xmlns="http://www.w3.org/2000/svg">
<path d="M39.7768 197.972C41.3039 199.512 43.1206 200.734 45.1224 201.568C47.1241 202.402 49.2712 202.831 51.4397 202.831C53.6083 202.831 55.7553 202.402 57.7571 201.568C59.7588 200.734 61.5756 199.512 63.1027 197.972L138.337 122.738C139.864 121.198 141.681 119.976 143.683 119.142C145.684 118.308 147.831 117.879 150 117.879C152.169 117.879 154.316 118.308 156.317 119.142C158.319 119.976 160.136 121.198 161.663 122.738L236.897 197.972C238.424 199.512 240.241 200.734 242.243 201.568C244.245 202.402 246.392 202.831 248.56 202.831C250.729 202.831 252.876 202.402 254.878 201.568C256.879 200.734 258.696 199.512 260.223 197.972C263.283 194.895 265 190.731 265 186.392C265 182.052 263.283 177.889 260.223 174.811L184.825 99.4122C175.585 90.1836 163.059 85 150 85C136.941 85 124.415 90.1836 115.175 99.4122L39.7768 174.811C36.7173 177.889 35 182.052 35 186.392C35 190.731 36.7173 194.895 39.7768 197.972Z"/>
</svg>
