<svg width="300" height="300" viewBox="0 0 300 300" fill="none" xmlns="http://www.w3.org/2000/svg">
<path d="M25 150.153C25.0869 159.548 28.8722 168.53 35.5357 175.153L112.143 251.939C115.489 255.265 120.015 257.131 124.732 257.131C129.45 257.131 133.976 255.265 137.321 251.939C138.995 250.279 140.324 248.304 141.23 246.128C142.137 243.951 142.604 241.617 142.604 239.26C142.604 236.903 142.137 234.569 141.23 232.393C140.324 230.217 138.995 228.242 137.321 226.582L78.5714 168.01L257.143 168.01C261.879 168.01 266.421 166.129 269.77 162.78C273.119 159.431 275 154.889 275 150.153C275 145.417 273.119 140.875 269.77 137.526C266.421 134.177 261.879 132.296 257.143 132.296L78.5714 132.296L137.321 73.5458C140.684 70.2069 142.582 65.669 142.599 60.9304C142.616 56.1917 140.75 51.6405 137.411 48.2779C134.072 44.9154 129.534 43.0169 124.795 43.0001C120.057 42.9834 115.505 44.8498 112.143 48.1887L35.5357 124.974C28.8288 131.641 25.0399 140.696 25 150.153V150.153Z" fill="current"/>
</svg>
