<svg width="300" height="300" viewBox="0 0 300 300" fill="none" xmlns="http://www.w3.org/2000/svg">
<path d="M260.223 107.859C258.696 106.319 256.879 105.097 254.878 104.263C252.876 103.429 250.729 103 248.56 103C246.392 103 244.245 103.429 242.243 104.263C240.241 105.097 238.424 106.319 236.897 107.859L161.663 183.093C160.136 184.633 158.319 185.855 156.317 186.689C154.316 187.523 152.169 187.952 150 187.952C147.831 187.952 145.684 187.523 143.683 186.689C141.681 185.855 139.864 184.633 138.337 183.093L63.1027 107.859C61.5756 106.319 59.7588 105.097 57.7571 104.263C55.7553 103.429 53.6083 103 51.4397 103C49.2712 103 47.1241 103.429 45.1224 104.263C43.1207 105.097 41.3038 106.319 39.7768 107.859C36.7173 110.937 35 115.1 35 119.44C35 123.78 36.7173 127.943 39.7768 131.021L115.175 206.419C124.415 215.648 136.941 220.831 150 220.831C163.059 220.831 175.585 215.648 184.825 206.419L260.223 131.021C263.283 127.943 265 123.78 265 119.44C265 115.1 263.283 110.937 260.223 107.859Z"/>
</svg>
