<svg width="32" height="32" viewBox="0 0 32 32" fill="none" xmlns="http://www.w3.org/2000/svg">
<g clip-path="url(#clip0_102_34)">
<path d="M16 6.66667C17.2887 6.66667 18.3334 5.622 18.3334 4.33333C18.3334 3.04467 17.2887 2 16 2C14.7114 2 13.6667 3.04467 13.6667 4.33333C13.6667 5.622 14.7114 6.66667 16 6.66667Z" fill="current"/>
<path d="M16 18.3333C17.2887 18.3333 18.3334 17.2887 18.3334 16C18.3334 14.7113 17.2887 13.6667 16 13.6667C14.7114 13.6667 13.6667 14.7113 13.6667 16C13.6667 17.2887 14.7114 18.3333 16 18.3333Z" fill="current"/>
<path d="M16 30C17.2887 30 18.3334 28.9554 18.3334 27.6667C18.3334 26.378 17.2887 25.3333 16 25.3333C14.7114 25.3333 13.6667 26.378 13.6667 27.6667C13.6667 28.9554 14.7114 30 16 30Z" fill="current"/>
</g>
<defs>
<clipPath id="clip0_102_34">
<rect width="28" height="28" fill="white" transform="translate(2 2)"/>
</clipPath>
</defs>
</svg>
