<svg width="32" height="32" viewBox="0 0 32 32" fill="none" xmlns="http://www.w3.org/2000/svg">
<g clip-path="url(#clip0_102_34)">
<path d="M6.66667 16C6.66667 14.7113 5.622 13.6667 4.33333 13.6667C3.04467 13.6667 2 14.7113 2 16C2 17.2887 3.04467 18.3333 4.33333 18.3333C5.622 18.3333 6.66667 17.2887 6.66667 16Z" fill="current"/>
<path d="M18.3334 16C18.3334 14.7113 17.2887 13.6667 16 13.6667C14.7114 13.6667 13.6667 14.7113 13.6667 16C13.6667 17.2887 14.7114 18.3333 16 18.3333C17.2887 18.3333 18.3334 17.2887 18.3334 16Z" fill="current"/>
<path d="M30 16C30 14.7113 28.9553 13.6667 27.6667 13.6667C26.378 13.6667 25.3333 14.7113 25.3333 16C25.3333 17.2887 26.378 18.3333 27.6667 18.3333C28.9553 18.3333 30 17.2887 30 16Z" fill="current"/>
</g>
<defs>
<clipPath id="clip0_102_34">
<rect width="28" height="28" fill="white" transform="translate(2 30) rotate(-90)"/>
</clipPath>
</defs>
</svg>
