<svg width="32" height="32" viewBox="0 0 32 32" fill="none" xmlns="http://www.w3.org/2000/svg">
<path fill-rule="evenodd" clip-rule="evenodd" d="M5.17871 26.9376C5.8253 21.4984 10.4709 17.28 16.1056 17.28C21.7403 17.28 26.3859 21.4984 27.0325 26.9376C26.4763 27.572 25.8722 28.1579 25.2265 28.6888C25.2341 28.54 25.238 28.3902 25.238 28.24C25.238 23.4219 21.2756 19.28 16.1056 19.28C11.3173 19.28 7.54562 22.8499 7.03391 27.2005C6.99389 27.5408 6.97323 27.8875 6.97323 28.24C6.97323 28.3902 6.97707 28.54 6.98471 28.6888C6.33899 28.1579 5.73495 27.572 5.17871 26.9376Z" fill="white"/>
<path d="M16 31C24.2843 31 31 24.2843 31 16C31 7.71573 24.2843 1 16 1C7.71573 1 1 7.71573 1 16C1 24.2843 7.71573 31 16 31Z" stroke="white" stroke-width="2"/>
<path d="M15.9999 17.88C19.0706 17.88 21.5599 15.3907 21.5599 12.32C21.5599 9.24926 19.0706 6.75997 15.9999 6.75997C12.9292 6.75997 10.4399 9.24926 10.4399 12.32C10.4399 15.3907 12.9292 17.88 15.9999 17.88Z" stroke="white" stroke-width="2"/>
</svg>
