<svg width="22" height="22" viewBox="0 0 16 16" fill="none" xmlns="http://www.w3.org/2000/svg">
<g clip-path="url(#clip0_22_101)">
<path d="M15.2193 6.11463L12.6333 3.52863C12.5076 3.40719 12.3392 3.34 12.1644 3.34152C11.9896 3.34304 11.8224 3.41315 11.6988 3.53675C11.5752 3.66036 11.5051 3.82757 11.5035 4.00237C11.502 4.17716 11.5692 4.34556 11.6907 4.4713L14.2767 7.0573C14.3535 7.13565 14.4206 7.22294 14.4767 7.3173C14.4667 7.3173 14.4587 7.31197 14.4487 7.31197L3.99266 7.3333C3.81584 7.3333 3.64628 7.40354 3.52125 7.52856C3.39623 7.65359 3.32599 7.82316 3.32599 7.99997C3.32599 8.17678 3.39623 8.34635 3.52125 8.47137C3.64628 8.59639 3.81584 8.66663 3.99266 8.66663L14.4447 8.6453C14.4633 8.6453 14.4787 8.63597 14.4967 8.63463C14.4375 8.7474 14.3625 8.85112 14.274 8.94263L11.688 11.5286C11.6243 11.5901 11.5735 11.6637 11.5386 11.745C11.5037 11.8264 11.4853 11.9138 11.4845 12.0024C11.4837 12.0909 11.5006 12.1787 11.5341 12.2606C11.5676 12.3425 11.6171 12.417 11.6797 12.4796C11.7423 12.5422 11.8168 12.5917 11.8987 12.6252C11.9806 12.6587 12.0684 12.6756 12.1569 12.6748C12.2454 12.674 12.3329 12.6556 12.4143 12.6207C12.4956 12.5858 12.5692 12.535 12.6307 12.4713L15.2167 9.8853C15.7166 9.38523 15.9974 8.70707 15.9974 7.99997C15.9974 7.29286 15.7166 6.61471 15.2167 6.11463H15.2193Z" fill="current"/>
<path d="M4.66667 14.6667H3.33333C2.8029 14.6667 2.29419 14.456 1.91912 14.0809C1.54405 13.7058 1.33333 13.1971 1.33333 12.6667V3.33333C1.33333 2.8029 1.54405 2.29419 1.91912 1.91912C2.29419 1.54405 2.8029 1.33333 3.33333 1.33333H4.66667C4.84348 1.33333 5.01305 1.2631 5.13807 1.13807C5.2631 1.01305 5.33333 0.843478 5.33333 0.666667C5.33333 0.489856 5.2631 0.320286 5.13807 0.195262C5.01305 0.0702379 4.84348 0 4.66667 0L3.33333 0C2.4496 0.00105857 1.60237 0.352588 0.97748 0.97748C0.352588 1.60237 0.00105857 2.4496 0 3.33333L0 12.6667C0.00105857 13.5504 0.352588 14.3976 0.97748 15.0225C1.60237 15.6474 2.4496 15.9989 3.33333 16H4.66667C4.84348 16 5.01305 15.9298 5.13807 15.8047C5.2631 15.6797 5.33333 15.5101 5.33333 15.3333C5.33333 15.1565 5.2631 14.987 5.13807 14.8619C5.01305 14.7369 4.84348 14.6667 4.66667 14.6667Z" fill="current"/>
</g>
<defs>
<clipPath id="clip0_22_101">
<rect width="16" height="16" fill="current"/>
</clipPath>
</defs>
</svg>
